<?xml version="1.0" encoding="utf-8"?>
<!-- Generator: Adobe Illustrator 22.0.1, SVG Export Plug-In . SVG Version: 6.00 Build 0)  -->
<svg version="1.1" id="Capa_1" xmlns="http://www.w3.org/2000/svg" xmlns:xlink="http://www.w3.org/1999/xlink" x="0px" y="0px"
	 viewBox="0 0 448 512" style="enable-background:new 0 0 448 512;" xml:space="preserve">
<style type="text/css">
	.st0{fill:$main-color;}
</style>
<path class="st0" d="M413.1,222.5l22.2,22.2c9.4,9.4,9.4,24.6,0,33.9L241,473c-9.4,9.4-24.6,9.4-33.9,0L12.7,278.6
	c-9.4-9.4-9.4-24.6,0-33.9l22.2-22.2c9.5-9.5,25-9.3,34.3,0.4L184,343.4V56c0-13.3,10.7-24,24-24h32c13.3,0,24,10.7,24,24v287.4
	l114.8-120.5C388.1,213.1,403.6,212.9,413.1,222.5L413.1,222.5z"/>
</svg>
