<?xml version="1.0" encoding="utf-8"?>
<!-- Generator: Adobe Illustrator 22.0.1, SVG Export Plug-In . SVG Version: 6.00 Build 0)  -->
<svg version="1.1" id="Capa_1" xmlns="http://www.w3.org/2000/svg" xmlns:xlink="http://www.w3.org/1999/xlink" x="0px" y="0px"
	 viewBox="0 0 576 512" style="enable-background:new 0 0 576 512;" xml:space="preserve">
<style type="text/css">
	.st0{fill:#0695D6;}
</style>
<path class="st0" d="M576,224c0-20.9-13.4-38.7-32-45.3V64c0-35.3-28.7-64-64-64c-65,56-142,128-272,128H48c-26.5,0-48,21.5-48,48
	v96c0,26.5,21.5,48,48,48h43.3c-18.7,64.6,2.5,116.4,18.8,167.4c1.7,5.3,5.2,9.9,9.9,12.9c20.8,13.2,68.4,15.7,93.8,5.2
	c16-6.6,20-27.4,7.5-39.5c-18.5-18-30.1-36.9-19.8-60.9c1.7-3.8,1.3-8.2-1-11.7c-16.3-24.7-3.6-62.1,28.5-72.8
	c117.4,7.2,189.6,74.4,251,127.3c35.3,0,64-28.7,64-64V269.3C562.6,262.7,576,244.9,576,224z M480,363.9c-54.6-45-125-92.9-224-105
	v-69.7c99-12,169.4-60,224-105V363.9z"/>
</svg>
