<svg id="Layer_1" data-name="Layer 1" xmlns="http://www.w3.org/2000/svg" viewBox="0 0 225 225"><defs><style>.cls-1{fill:#b8e9ff;}.cls-2{fill:gray;}.cls-3{fill:#ffa800;}.cls-4{fill:#e09400;}.cls-5{fill:#c9c9c9;}.cls-6{fill:#d6d6d6;}.cls-7{fill:#0695d6;}</style></defs><title>icono_consulta-publica-2</title><rect class="cls-1" x="119.97" y="29.76" width="3" height="12.69" transform="translate(242.94 72.2) rotate(-180)"/><rect class="cls-1" x="119.97" y="29.76" width="3" height="12.69" transform="translate(157.57 -85.37) rotate(90)"/><rect class="cls-1" x="25.97" y="151.76" width="3" height="12.69" transform="translate(54.94 316.2) rotate(-180)"/><rect class="cls-1" x="25.97" y="151.76" width="3" height="12.69" transform="translate(185.57 130.63) rotate(90)"/><path class="cls-1" d="M182.92,107.42a7.69,7.69,0,0,1-7.67-7.68l1.08-.08,1.09.08a5.51,5.51,0,0,0,9,4.26l1.38,1.68A7.73,7.73,0,0,1,182.92,107.42Zm6.31-3.29-1.78-1.24a5.74,5.74,0,0,0,.77-1.62l2.08.6A7.57,7.57,0,0,1,189.23,104.13Zm-.8-4.35v0a5.5,5.5,0,0,0-9-4.28l-1.37-1.69a7.68,7.68,0,0,1,12.51,6Zm-10.79-1.61-2.08-.61a7.51,7.51,0,0,1,1.09-2.24l1.77,1.25A5.4,5.4,0,0,0,177.64,98.17Z"/><path class="cls-1" d="M34.58,99.13a7.26,7.26,0,0,0-14.52,0Z"/><path class="cls-1" d="M105.28,164.5a7.27,7.27,0,0,0,14.53,0Z"/><rect class="cls-1" x="70.32" y="186.22" width="3" height="9.35" transform="translate(262.72 119.07) rotate(90)"/><rect class="cls-1" x="63.31" y="189.4" width="3" height="3" transform="translate(255.71 126.08) rotate(90)"/><rect class="cls-1" x="190.32" y="169.22" width="3" height="9.35" transform="translate(365.72 -17.93) rotate(90)"/><rect class="cls-1" x="183.31" y="172.4" width="3" height="3" transform="translate(358.71 -10.92) rotate(90)"/><rect class="cls-1" x="41.32" y="43.22" width="3" height="9.35" transform="translate(90.72 5.07) rotate(90)"/><rect class="cls-1" x="34.31" y="46.4" width="3" height="3" transform="translate(83.71 12.08) rotate(90)"/><circle class="cls-1" cx="106.5" cy="120.5" r="65.95"/><path class="cls-2" d="M166.41,167.76a2,2,0,0,1-1.42-.59L58.44,60.62a2,2,0,0,1,0-2.82l24-24a2,2,0,0,1,2.83,0L191.79,140.38a2,2,0,0,1,0,2.82l-24,24A2,2,0,0,1,166.41,167.76ZM62.69,59.21,166.41,162.93l21.14-21.14-30.1-30.1h0L83.83,38.07Z"/><polyline class="cls-3" points="134.89 134.24 166.41 165.76 190.38 141.79 158.86 110.27 115.34 66.76 83.83 35.24 59.86 59.21 91.38 90.73"/><rect class="cls-4" x="119.69" y="106" width="33.9" height="12.05" transform="translate(-39.19 129.43) rotate(-45)"/><path class="cls-4" d="M157.18,143l-6.77,6.77,5.1,5.1,6.77-6.77a3.61,3.61,0,0,0-5.1-5.1Z"/><path class="cls-4" d="M143.26,142.61l6.77-6.77a3.6,3.6,0,0,0-5.09-5.09l-6.77,6.77Z"/><path class="cls-4" d="M87.07,86.43l6.77-6.77a3.6,3.6,0,0,0-5.09-5.1L82,81.33Z"/><path class="cls-4" d="M74.83,74.18l6.77-6.77a3.61,3.61,0,0,0-5.1-5.1l-6.77,6.77Z"/><path class="cls-2" d="M66.1,161.93a2,2,0,0,1-1.94-2.48L71.67,129a2,2,0,0,1,.53-.94l87.54-87.54a2.06,2.06,0,0,1,2.83,0l23,23a2,2,0,0,1,0,2.82L98,153.82a2,2,0,0,1-.93.53l-30.5,7.52A2,2,0,0,1,66.1,161.93Zm9.32-31.49-6.59,26.75,26.75-6.59.29-.29,85.44-85.44L161.15,44.71Z"/><polygon class="cls-5" points="158.44 90.57 96.6 152.41 66.1 159.93 73.61 129.42 161.15 41.88 184.14 64.87 171.17 77.84 158.44 90.57"/><polygon class="cls-6" points="66.1 159.93 96.6 152.41 97.28 151.73 74.3 128.74 73.95 129.08 73.61 129.42 66.1 159.93"/><polygon class="cls-7" points="80.84 156.29 69.73 145.18 66.1 159.93 80.84 156.29"/></svg>