<svg id="Layer_1" data-name="Layer 1" xmlns="http://www.w3.org/2000/svg" viewBox="0 0 225 225"><defs><style>.cls-1{fill:#b8e9ff;}.cls-2{fill:gray;}.cls-3{fill:#a8a8a8;}.cls-4{fill:#d6d6d6;}.cls-5{fill:#ffa800;}.cls-6{fill:#e09400;}.cls-7{fill:#bfbfbf;}.cls-8{fill:#0695d6;}.cls-9{fill:#07a3eb;}</style></defs><title>icono_consulta-publica-1</title><rect class="cls-1" x="151.04" y="176.87" width="3" height="12.69"/><rect class="cls-1" x="151.04" y="176.87" width="3" height="12.69" transform="translate(335.76 30.68) rotate(90)"/><path class="cls-1" d="M88.1,40.41a7.66,7.66,0,0,1-4.87-1.74L84.61,37a5.52,5.52,0,0,0,9-4.26l2.17-.1v.1A7.68,7.68,0,0,1,88.1,40.41Zm-6.3-3.29a7.51,7.51,0,0,1-1.07-2.25l2.08-.6a5.69,5.69,0,0,0,.77,1.61Zm-1.38-4.35v0a7.69,7.69,0,0,1,12.52-6l-1.37,1.69a5.41,5.41,0,0,0-3.47-1.23,5.52,5.52,0,0,0-5.51,5.51Zm13-1.6a5.58,5.58,0,0,0-.78-1.61l1.77-1.25a7.57,7.57,0,0,1,1.09,2.25Z"/><path class="cls-1" d="M188.22,151.41a7.72,7.72,0,0,1-4.87-1.74l1.38-1.68a5.51,5.51,0,0,0,9-4.26l2.17-.1v.1A7.69,7.69,0,0,1,188.22,151.41Zm-6.3-3.29a7.36,7.36,0,0,1-1.08-2.26l2.09-.6a5.29,5.29,0,0,0,.76,1.61Zm-1.38-4.35v0a7.68,7.68,0,0,1,12.51-6l-1.37,1.69a5.39,5.39,0,0,0-3.46-1.23,5.51,5.51,0,0,0-5.51,5.51Zm13-1.61a5.58,5.58,0,0,0-.78-1.61l1.77-1.25a7.33,7.33,0,0,1,1.09,2.25Z"/><path class="cls-1" d="M199.14,72.14a7.26,7.26,0,1,1,14.52,0Z"/><rect class="cls-1" x="76.6" y="192.93" width="3" height="9.35" transform="translate(275.71 119.5) rotate(90)"/><rect class="cls-1" x="83.61" y="196.1" width="3" height="3" transform="translate(282.72 112.49) rotate(90)"/><rect class="cls-1" x="179.64" y="35.36" width="1.46" height="2.34"/><rect class="cls-1" x="181.99" y="35.36" width="4.3" height="2.34"/><rect class="cls-1" x="187.15" y="35.36" width="6.8" height="2.34"/><path class="cls-1" d="M18.28,138.5a7.27,7.27,0,0,0,14.53,0Z"/><rect class="cls-1" x="51.92" y="64.79" width="5.69" height="2.34" transform="translate(109.53 131.91) rotate(-180)"/><rect class="cls-1" x="31.7" y="64.79" width="16.74" height="2.34" transform="translate(80.15 131.91) rotate(-180)"/><circle class="cls-1" cx="106.5" cy="120.5" r="65.95"/><path class="cls-2" d="M106.62,145A26,26,0,0,1,95.2,95.62l.2-.08a26,26,0,0,1,20.24,47.87l-.2.09A25.94,25.94,0,0,1,106.62,145ZM96.86,99.27A22,22,0,0,0,114,139.77a22,22,0,0,0-17.12-40.5Z"/><path class="cls-2" d="M109.35,170.87H99.09a4.53,4.53,0,0,1-4.52-4.52V160.6a41.37,41.37,0,0,1-12.22-5.06l-4.06,4.06a4.53,4.53,0,0,1-6.4,0l-7.24-7.26a4.41,4.41,0,0,1-1.33-3.18A4.47,4.47,0,0,1,64.65,146l4.06-4.07a41.07,41.07,0,0,1-5-12.21H57.9a4.53,4.53,0,0,1-4.53-4.53V114.9a4.53,4.53,0,0,1,4-4.5,4.47,4.47,0,0,1,2.89-1h3.61a41.29,41.29,0,0,1,4.8-11.2l-4.07-4.07a4.51,4.51,0,0,1,0-6.39l7.23-7.25a4.53,4.53,0,0,1,2.73-1.31,4.5,4.5,0,0,1,2.88-1h0a4.45,4.45,0,0,1,3.19,1.33l3.83,3.83a42.58,42.58,0,0,1,4.76-2.19,41.41,41.41,0,0,1,5.29-2V73.7a4.52,4.52,0,0,1,4-4.49,4.49,4.49,0,0,1,2.88-1h3.32a35.84,35.84,0,0,1-.19-3.73,37.22,37.22,0,1,1,74.43,0,36.78,36.78,0,0,1-6.7,21.31L175,88.43l7.21-7.51a2,2,0,0,1,1.43-.61,2.06,2.06,0,0,1,1.44.6l8.16,8.29a2,2,0,0,1,0,2.79l-3.13,3.25,30.63,31.64c3.65,3.8,3.25,10.13-.88,14.1h0a11,11,0,0,1-7.55,3.1,9.05,9.05,0,0,1-6.49-2.6L175.65,110.3,172.14,114a2,2,0,0,1-1.43.61,2,2,0,0,1-1.44-.6l-8.16-8.29a2,2,0,0,1,0-2.79l5.42-5.63-2.74-2.77a37.28,37.28,0,0,1-19.29,7.06,41.75,41.75,0,0,1,2.69,7.82h5.76a4.53,4.53,0,0,1,4.53,4.53v10.25a4.52,4.52,0,0,1-4,4.49,4.52,4.52,0,0,1-2.89,1.05h-3.61a41.55,41.55,0,0,1-4.8,11.2L146.2,145a4.51,4.51,0,0,1,0,6.39l-7.25,7.25a4.47,4.47,0,0,1-2.7,1.3,4.53,4.53,0,0,1-6.09-.28l-3.83-3.84a40.67,40.67,0,0,1-4.8,2.19,39.22,39.22,0,0,1-5.25,2v5.38a4.54,4.54,0,0,1-4,4.51A4.54,4.54,0,0,1,109.35,170.87ZM82.08,151a2,2,0,0,1,1.12.34l.71.47.09.06A37.42,37.42,0,0,0,97,157a2,2,0,0,1,1.62,2v7.37a.52.52,0,0,0,.52.52h10.26a.53.53,0,0,0,.41-.21,2,2,0,0,1,1.6-.8h.38a.52.52,0,0,0,.53-.53v-6.9a2,2,0,0,1,1.5-1.94,36.18,36.18,0,0,0,6.13-2.18l.13-.06a36.17,36.17,0,0,0,5.61-2.69,2,2,0,0,1,2.44.31l4.9,4.91a.54.54,0,0,0,.75,0l.29-.29a2,2,0,0,1,1.65-.57.61.61,0,0,0,.45-.15l7.25-7.25a.52.52,0,0,0,.15-.38.47.47,0,0,0-.15-.36l-5.21-5.22a2,2,0,0,1-.24-2.52,37.72,37.72,0,0,0,5.49-12.79,2,2,0,0,1,2-1.57h5.18a.51.51,0,0,0,.42-.21,2,2,0,0,1,1.61-.81h.37a.53.53,0,0,0,.53-.52V113.89a.53.53,0,0,0-.53-.53h-7.37a2,2,0,0,1-2-1.62,37.75,37.75,0,0,0-4.08-11.13,2,2,0,0,1,0-2,2,2,0,0,1,1.81-.94h.45a33.27,33.27,0,0,0,20.87-7.37,2,2,0,0,1,2.68.14l5.24,5.29a1.85,1.85,0,0,1,.54.74,2,2,0,0,1-.4,2.17l-5.43,5.64,5.35,5.44L174.2,106a2,2,0,0,1,1.44-.61h0a2,2,0,0,1,1.44.61l31.61,32.65a5.1,5.1,0,0,0,3.64,1.4,7,7,0,0,0,4.77-2h0c2.55-2.45,2.9-6.24.78-8.44l-32-33a2,2,0,0,1-.56-1.39,2,2,0,0,1,.56-1.4L189,90.62l-5.35-5.44-7.21,7.5a2,2,0,0,1-2.86,0l-5.31-5.36a2,2,0,0,1-.16-2.63,32.83,32.83,0,0,0,6.91-20.28,33.22,33.22,0,1,0-66,5.4,2,2,0,0,1-.44,1.62,2,2,0,0,1-1.53.71h-5.6a.46.46,0,0,0-.39.19,2,2,0,0,1-1.62.83h-.39a.52.52,0,0,0-.52.52v6.91a2,2,0,0,1-1.5,1.94,37.24,37.24,0,0,0-6.19,2.2l-.12,0a37,37,0,0,0-5.57,2.68,2,2,0,0,1-2.42-.31l-4.91-4.9a.48.48,0,0,0-.37-.16.71.71,0,0,0-.38.15l-.29.29a1.94,1.94,0,0,1-1.67.57.52.52,0,0,0-.44.15l-7.23,7.25a.49.49,0,0,0-.16.38.47.47,0,0,0,.15.36l5.21,5.22A2,2,0,0,1,72.92,99a37.42,37.42,0,0,0-5.49,12.78,2,2,0,0,1-2,1.57H60.3a.49.49,0,0,0-.41.2,2,2,0,0,1-1.61.81H57.9a.53.53,0,0,0-.53.53v10.25a.52.52,0,0,0,.53.53h7.37a2,2,0,0,1,2,1.62A37.33,37.33,0,0,0,72.92,141a2,2,0,0,1-.24,2.53l-5.2,5.21a.49.49,0,0,0-.16.38.47.47,0,0,0,.15.36l7.24,7.26a.56.56,0,0,0,.76,0l5.19-5.21A2,2,0,0,1,82.08,151Z"/><path class="cls-3" d="M73.3,158.19a2.53,2.53,0,0,0,3.58,0l5.2-5.21a39.45,39.45,0,0,0,14.49,6v7.37a2.52,2.52,0,0,0,2.52,2.52h10.26a2.52,2.52,0,0,0,2.52-2.52V159a39.45,39.45,0,0,0,14.49-6l5.2,5.21a2.53,2.53,0,0,0,3.58,0l7.25-7.25a2.53,2.53,0,0,0,0-3.57l-5.21-5.21a39.41,39.41,0,0,0,6-14.48h7.36a2.53,2.53,0,0,0,2.53-2.53V114.9a2.53,2.53,0,0,0-2.53-2.53h-7.36a39.41,39.41,0,0,0-6-14.48l5.21-5.21a2.53,2.53,0,0,0,0-3.57l-7.25-7.25a2.53,2.53,0,0,0-3.58,0l-5.2,5.21a39.45,39.45,0,0,0-14.49-6V73.7a2.52,2.52,0,0,0-2.52-2.52H99.09a2.52,2.52,0,0,0-2.52,2.52v7.37a39.45,39.45,0,0,0-14.49,6l-5.2-5.21a2.53,2.53,0,0,0-3.58,0l-7.24,7.25a2.52,2.52,0,0,0,0,3.57l5.2,5.21a39.56,39.56,0,0,0-6,14.48H57.9a2.53,2.53,0,0,0-2.53,2.53v10.25a2.53,2.53,0,0,0,2.53,2.53h7.37a39.56,39.56,0,0,0,6,14.48l-5.2,5.21a2.52,2.52,0,0,0,0,3.57m38.16-6.89a24,24,0,1,1,24-24A24,24,0,0,1,104.22,144.05Z"/><path class="cls-4" d="M152.94,111.36h-7.37a39.61,39.61,0,0,0-6-14.49l5.2-5.2a2.52,2.52,0,0,0,0-3.57l-7.25-7.25a2.52,2.52,0,0,0-3.57,0l-5.21,5.2a39.49,39.49,0,0,0-14.48-6V72.69a2.53,2.53,0,0,0-2.53-2.53H101.49A2.52,2.52,0,0,0,99,72.69v7.37a39.61,39.61,0,0,0-14.49,6l-5.21-5.2a2.52,2.52,0,0,0-3.57,0L68.45,88.1a2.53,2.53,0,0,0,0,3.57l5.21,5.2a39.45,39.45,0,0,0-6,14.49H60.3a2.53,2.53,0,0,0-2.53,2.53v10.25a2.52,2.52,0,0,0,2.53,2.52h7.36a39.45,39.45,0,0,0,6,14.49l-5.21,5.21a2.53,2.53,0,0,0,0,3.57l7.25,7.25a2.53,2.53,0,0,0,3.57,0L84.48,152A39.45,39.45,0,0,0,99,158v7.36a2.52,2.52,0,0,0,2.52,2.53h10.25a2.53,2.53,0,0,0,2.53-2.53V158a39.34,39.34,0,0,0,14.48-6l5.21,5.21a2.53,2.53,0,0,0,3.57,0l7.25-7.25a2.52,2.52,0,0,0,0-3.57l-5.2-5.21a39.61,39.61,0,0,0,6-14.49h7.37a2.53,2.53,0,0,0,2.53-2.52V113.89A2.53,2.53,0,0,0,152.94,111.36ZM106.62,143a24,24,0,1,1,24-24A24,24,0,0,1,106.62,143Z"/><path class="cls-5" d="M184.88,92.69l34.44,35.58c2.91,3,2.5,8.07-.83,11.27h0c-3.33,3.19-8.39,3.38-11.24.53l-34.44-35.58"/><polygon class="cls-6" points="175.27 107.04 179.03 110.92 190.82 98.83 187.19 95.09 175.27 107.04"/><path class="cls-7" d="M172.23,98.43a4.14,4.14,0,0,1-2.93-1.22l-11.85-12a4.12,4.12,0,1,1,5.85-5.8l11.85,12a4.11,4.11,0,0,1-2.92,7Z"/><polygon class="cls-4" points="170.7 112.56 162.54 104.27 183.66 82.31 191.82 90.6 170.7 112.56"/><path class="cls-2" d="M141.83,101.64a37.2,37.2,0,1,1,30.7-16.16l-3.3-2.27a33.22,33.22,0,1,0-8.14,8.28l2.33,3.26A37,37,0,0,1,141.83,101.64Z"/><circle class="cls-8" cx="141.83" cy="64.43" r="35.22"/><path class="cls-9" d="M141.83,90.92a26.52,26.52,0,0,1-26.48-26.49,5.41,5.41,0,1,1,10.82,0,15.68,15.68,0,0,0,15.66,15.66,5.42,5.42,0,1,1,0,10.83Z"/></svg>