<svg id="Layer_1" data-name="Layer 1" xmlns="http://www.w3.org/2000/svg" xmlns:xlink="http://www.w3.org/1999/xlink" viewBox="0 0 225 225"><defs><style>.cls-1{fill:gray;}.cls-2{fill:none;}.cls-3{fill:#b8e9ff;}.cls-4{clip-path:url(#clip-path);}.cls-5{clip-path:url(#clip-path-2);}.cls-6{fill:#07a3eb;}.cls-7{fill:#0695d6;}.cls-8{fill:#d1d1d1;}.cls-9{fill:#dedede;}.cls-10{fill:#b0b0b0;}</style><clipPath id="clip-path"><path class="cls-1" d="M121.93,188.16h-.27a7.08,7.08,0,0,1-6.51-4.87L104.36,150.9l-24.15,8.61a7.11,7.11,0,0,1-9.28-8.46l9.85-38.46L38.52,98.91a7.14,7.14,0,0,1,1-13.19L178.33,38.47a5.77,5.77,0,0,1,7.18,7.67l-57,137.61A7.07,7.07,0,0,1,121.93,188.16Zm-15.07-42.4L118.94,182a3.14,3.14,0,0,0,5.87.21l57-137.61a1.77,1.77,0,0,0-2.21-2.35L40.81,89.52a3.07,3.07,0,0,0-2.22,2.76,3,3,0,0,0,1.6,3l44,14.22,1.18,1.13-.27,1.15L74.8,152a3.11,3.11,0,0,0,4.06,3.71Z"/></clipPath><clipPath id="clip-path-2"><path class="cls-2" d="M72.87,151.55a5.11,5.11,0,0,0,6.67,6.08l22.37-8,3.7-1.32,11.44,34.31a5.13,5.13,0,0,0,9.61.35l57-137.62a3.76,3.76,0,0,0-4.69-5L40.16,87.63a5.14,5.14,0,0,0-.74,9.49l43.74,14.13,0,0Z"/></clipPath></defs><title>icono_consulta-publica-3</title><rect class="cls-3" x="177.29" y="161.26" width="3" height="12.69" transform="translate(357.58 335.2) rotate(-180)"/><rect class="cls-3" x="177.29" y="161.26" width="3" height="12.69" transform="translate(346.39 -11.19) rotate(90)"/><rect class="cls-3" x="14.52" y="106.68" width="3" height="12.69" transform="translate(32.05 226.05) rotate(-180)"/><rect class="cls-3" x="14.52" y="106.68" width="3" height="12.69" transform="translate(129.05 97) rotate(90)"/><path class="cls-3" d="M118.92,37.42a7.69,7.69,0,0,1-7.67-7.68l2.17-.08v.12a5.51,5.51,0,0,0,9,4.22l1.37,1.68A7.68,7.68,0,0,1,118.92,37.42Zm6.31-3.29-1.78-1.24a5.74,5.74,0,0,0,.77-1.62l2.08.61A7.63,7.63,0,0,1,125.23,34.13Zm-.8-4.35v0a5.5,5.5,0,0,0-9-4.28l-1.37-1.69a7.68,7.68,0,0,1,12.51,6Zm-10.79-1.6-2.08-.62a7.51,7.51,0,0,1,1.09-2.24l1.77,1.25A5.34,5.34,0,0,0,113.64,28.18Z"/><path class="cls-3" d="M79.07,192.53a7.26,7.26,0,1,0-14.52,0Z"/><path class="cls-3" d="M45.28,56.5a7.27,7.27,0,0,0,14.53,0Z"/><rect class="cls-3" x="28.61" y="161.09" width="3" height="9.35" transform="translate(195.87 135.65) rotate(90)"/><rect class="cls-3" x="21.6" y="164.26" width="3" height="3" transform="translate(188.86 142.66) rotate(90)"/><rect class="cls-3" x="185.38" y="90.64" width="3" height="9.35" transform="translate(282.19 -91.56) rotate(90)"/><rect class="cls-3" x="178.36" y="93.81" width="3" height="3" transform="translate(275.18 -84.55) rotate(90)"/><rect class="cls-3" x="195.1" y="130.48" width="6.8" height="2.34" transform="translate(397 263.3) rotate(-180)"/><circle class="cls-3" cx="106.5" cy="120.5" r="65.95"/><path class="cls-1" d="M121.93,188.16h-.27a7.08,7.08,0,0,1-6.51-4.87L104.36,150.9l-24.15,8.61a7.11,7.11,0,0,1-9.28-8.46l9.85-38.46L38.52,98.91a7.14,7.14,0,0,1,1-13.19L178.33,38.47a5.77,5.77,0,0,1,7.18,7.67l-57,137.61A7.07,7.07,0,0,1,121.93,188.16Zm-15.07-42.4L118.94,182a3.14,3.14,0,0,0,5.87.21l57-137.61a1.77,1.77,0,0,0-2.21-2.35L40.81,89.52a3.07,3.07,0,0,0-2.22,2.76,3,3,0,0,0,1.6,3l44,14.22,1.18,1.13-.27,1.15L74.8,152a3.11,3.11,0,0,0,4.06,3.71Z"/><g class="cls-4"><path class="cls-1" d="M65.06,164.84,104.54,111l31.63,28.58Zm40.09-47.92L76,156.71,128.51,138Z"/><path class="cls-1" d="M93.53,154.76l3.56-37.63,11.53,32.25Zm5.85-19.34-1.27,13.46,5.4-1.92Z"/><path class="cls-1" d="M98.26,129.1,82.09,113,38.66,99l-.14-.07a7.14,7.14,0,0,1,1-13.19L194.34,33ZM40.19,95.27l44,14.23,14,14,81.11-81.1L40.81,89.52a3.07,3.07,0,0,0-2.22,2.76A3,3,0,0,0,40.19,95.27Z"/><path class="cls-1" d="M121.93,188.16h-.27a7.08,7.08,0,0,1-6.51-4.87L96,125.74l96.57-96.58-64,154.59A7.07,7.07,0,0,1,121.93,188.16Zm-21.39-61.34L118.94,182a3,3,0,0,0,2.87,2.14,3,3,0,0,0,3-1.93l56.34-136Z"/><path class="cls-1" d="M66.29,169.22l15.17-59.3L185.7,36.05l2.57,3L99.75,127.61ZM85,112.34l-10.23,40,22.1-27.47L168.73,53Z"/></g><g class="cls-5"><polygon class="cls-6" points="132.34 138.8 70.52 160.78 104.84 113.95 132.34 138.8"/><polygon class="cls-7" points="95.82 151.82 106.06 148.17 98.24 126.28 95.82 151.82"/><path class="cls-8" d="M186.85,37.68,40.16,87.63a5.14,5.14,0,0,0-.74,9.49l43.74,14.13,15.1,15Z"/><path class="cls-9" d="M142.55,82l-44.29,44.3L117,182.64a5.14,5.14,0,0,0,9.62.35L186.85,37.68Z"/><polygon class="cls-10" points="186.86 37.68 83.22 111.13 70.52 160.78 98.26 126.28 186.86 37.68"/></g></svg>