<?xml version="1.0" encoding="utf-8"?>
<!-- Generator: Adobe Illustrator 22.0.1, SVG Export Plug-In . SVG Version: 6.00 Build 0)  -->
<svg version="1.1" id="Capa_1" xmlns="http://www.w3.org/2000/svg" xmlns:xlink="http://www.w3.org/1999/xlink" x="0px" y="0px"
	 viewBox="0 0 576 512" style="enable-background:new 0 0 576 512;" xml:space="preserve">
<style type="text/css">
	.st0{fill:#0695D6;stroke:#000000;stroke-miterlimit:10;}
</style>
<path class="st0" d="M552,64H88c-13.3,0-24,10.7-24,24v8H24c-13.3,0-24,10.7-24,24v272c0,30.9,25.1,56,56,56h472
	c26.5,0,48-21.5,48-48V88C576,74.7,565.3,64,552,64z M56,400c-4.4,0-8-3.6-8-8V144h16v248C64,396.4,60.4,400,56,400z M292,384H140
	c-6.6,0-12-5.4-12-12v-8c0-6.6,5.4-12,12-12h152c6.6,0,12,5.4,12,12v8C304,378.6,298.6,384,292,384z M500,384H348
	c-6.6,0-12-5.4-12-12v-8c0-6.6,5.4-12,12-12h152c6.6,0,12,5.4,12,12v8C512,378.6,506.6,384,500,384z M292,288H140
	c-6.6,0-12-5.4-12-12v-8c0-6.6,5.4-12,12-12h152c6.6,0,12,5.4,12,12v8C304,282.6,298.6,288,292,288z M500,288H348
	c-6.6,0-12-5.4-12-12v-8c0-6.6,5.4-12,12-12h152c6.6,0,12,5.4,12,12v8C512,282.6,506.6,288,500,288z M500,192H140
	c-6.6,0-12-5.4-12-12v-40c0-6.6,5.4-12,12-12h360c6.6,0,12,5.4,12,12v40C512,186.6,506.6,192,500,192z"/>
</svg>
