<?xml version="1.0" encoding="UTF-8"?>
<svg width="37px" height="36px" viewBox="0 0 37 36" version="1.1" xmlns="http://www.w3.org/2000/svg" xmlns:xlink="http://www.w3.org/1999/xlink">
    <!-- Generator: Sketch 43.1 (39012) - http://www.bohemiancoding.com/sketch -->
    <title>Group 3</title>
    <desc>Created with Sketch.</desc>
    <defs></defs>
    <g id="Web-" stroke="none" stroke-width="1" fill="none" fill-rule="evenodd">
        <g id="Landing" transform="translate(-570.000000, -1843.000000)" fill="#565656">
            <g id="Group-21" transform="translate(-302.000000, 1294.000000)">
                <g id="Group-18" transform="translate(843.000000, 153.000000)">
                    <g id="Group-9" transform="translate(29.896552, 396.719424)">
                        <g id="Group-3">
                            <path d="M17.5862069,35.1079137 C7.87361254,35.1079137 0,27.24874 0,17.5539568 C0,7.8591737 7.87361254,0 17.5862069,0 C27.2988013,0 35.1724138,7.8591737 35.1724138,17.5539568 C35.1724138,27.24874 27.2988013,35.1079137 17.5862069,35.1079137 Z M19.7021793,6.22252662 C18.9635586,6.22252662 18.2544828,6.31099856 17.4272276,6.63539568 C15.7431724,7.31368058 14.8863724,8.90617554 14.8863724,11.3833899 L14.8863724,13.801623 L12.5227862,13.801623 L12.5227862,17.8418417 L14.8863724,17.8418417 L14.8863724,29.4906475 L19.7021793,29.4906475 L19.7021793,17.8418417 L22.9816552,17.8418417 L23.4248276,13.801623 L19.7021793,13.801623 L19.7021793,11.9732029 C19.7021793,11.4128806 19.761269,11.0000115 19.9089931,10.7640863 C20.1158069,10.4101986 20.5294345,10.2332547 21.1794207,10.2332547 L23.3657379,10.2332547 L23.3657379,6.22252662 L19.7021793,6.22252662 Z" id="facebook_c"></path>
                        </g>
                    </g>
                </g>
            </g>
        </g>
    </g>
</svg>