<?xml version="1.0" encoding="UTF-8"?>
<svg width="37px" height="36px" viewBox="0 0 37 36" version="1.1" xmlns="http://www.w3.org/2000/svg" xmlns:xlink="http://www.w3.org/1999/xlink">
    <!-- Generator: Sketch 43.1 (39012) - http://www.bohemiancoding.com/sketch -->
    <title>Group 7</title>
    <desc>Created with Sketch.</desc>
    <defs></defs>
    <g id="Web-" stroke="none" stroke-width="1" fill="none" fill-rule="evenodd">
        <g id="Landing" transform="translate(-716.000000, -1843.000000)">
            <g id="Group-21" transform="translate(-302.000000, 1294.000000)">
                <g id="Group-18" transform="translate(843.000000, 153.000000)">
                    <g id="Group-9" transform="translate(29.896552, 396.719424)">
                        <g id="Group-7" transform="translate(145.965517, 0.000000)">
                            <g id="Group-2-Copy">
                                <ellipse id="Oval-189" fill="#565656" cx="17.5862069" cy="17.5539568" rx="17.5862069" ry="17.5539568"></ellipse>
                                <path d="M18.7184695,23.7038534 L16.0684932,26.3489701 C15.2855456,27.1304819 14.2616911,27.5512959 13.1776098,27.5512959 C12.0935286,27.5512959 11.0696741,27.1304819 10.2867265,26.3489701 L9.4435522,25.5073421 C8.66060463,24.7258303 8.23901748,23.7038534 8.23901748,22.6217601 C8.23901748,21.5396669 8.66060463,20.51769 9.4435522,19.7361782 L12.9668162,16.2193752 C14.5628248,14.6262935 17.1525744,14.6262935 18.7485829,16.2193752 L20.4650449,17.9326895 C20.7059518,18.1731546 21.0673122,18.1731546 21.3082192,17.9326895 C21.5491261,17.6922243 21.5491261,17.3315266 21.3082192,17.0910614 L19.5917572,15.3777471 C17.5139348,13.3037351 14.171351,13.3037351 12.0935286,15.3777471 L8.60037789,18.864492 C7.60663675,19.8564108 7.06459613,21.1789692 7.06459613,22.591702 C7.06459613,24.0044348 7.60663675,25.3269932 8.60037789,26.318912 L9.4435522,27.1605401 C10.4372933,28.1524589 11.7622815,28.6935055 13.1776098,28.6935055 C14.5929381,28.6935055 15.9179263,28.1524589 16.9116675,27.1605401 L19.5616438,24.5154233 C19.8025508,24.2749581 19.8025508,23.9142604 19.5616438,23.6737952 C19.3508503,23.4633882 18.9593765,23.4633882 18.7184695,23.7038534 Z" id="Shape" stroke="#FFFFFF" stroke-width="0.877892045" fill="#FFFFFF" fill-rule="nonzero"></path>
                                <path d="M26.3973784,8.55454814 C25.4036372,7.56262935 24.078649,7.02158273 22.6633207,7.02158273 C21.2479924,7.02158273 19.9230043,7.56262935 18.9292631,8.55454814 L16.7008739,10.7788509 C16.4599669,11.0193161 16.4599669,11.3800138 16.7008739,11.620479 C16.9417808,11.8609441 17.3031412,11.8609441 17.5440482,11.620479 L19.7724374,9.39617621 C20.555385,8.61466443 21.5792395,8.1938504 22.6633207,8.1938504 C23.747402,8.1938504 24.7712565,8.61466443 25.5542041,9.39617621 L26.3973784,10.2378043 C27.1803259,11.0193161 27.6019131,12.041293 27.6019131,13.1233862 C27.6019131,14.2054795 27.1803259,15.2274564 26.3973784,16.0089682 L23.3258148,19.1049571 C22.5428673,19.8864689 21.5190128,20.3072829 20.4349315,20.3072829 C19.3508503,20.3072829 18.3269957,19.8864689 17.5440482,19.1049571 L15.8275862,17.3916429 C15.5866793,17.1511777 15.2253188,17.1511777 14.9844119,17.3916429 C14.743505,17.632108 14.743505,17.9928058 14.9844119,18.2332709 L16.7008739,19.9465852 C17.694615,20.938504 19.0196032,21.4795506 20.4349315,21.4795506 C21.8502598,21.4795506 23.175248,20.938504 24.1689891,19.9465852 L27.2405527,16.8806544 C28.2342938,15.8887356 28.7763344,14.5661772 28.7763344,13.1534444 C28.7763344,11.7407115 28.2342938,10.4181531 27.2405527,9.42623435 L26.3973784,8.55454814 Z" id="Shape" stroke="#FFFFFF" stroke-width="0.877892045" fill="#FFFFFF" fill-rule="nonzero"></path>
                            </g>
                        </g>
                    </g>
                </g>
            </g>
        </g>
    </g>
</svg>