<?xml version="1.0" encoding="UTF-8"?>
<svg width="36px" height="36px" viewBox="0 0 36 36" version="1.1" xmlns="http://www.w3.org/2000/svg" xmlns:xlink="http://www.w3.org/1999/xlink">
    <!-- Generator: Sketch 43.1 (39012) - http://www.bohemiancoding.com/sketch -->
    <title>Group 5</title>
    <desc>Created with Sketch.</desc>
    <defs></defs>
    <g id="Web-" stroke="none" stroke-width="1" fill="none" fill-rule="evenodd">
        <g id="Landing" transform="translate(-618.000000, -1843.000000)" fill="#565656">
            <g id="Group-21" transform="translate(-302.000000, 1294.000000)">
                <g id="Group-18" transform="translate(843.000000, 153.000000)">
                    <g id="Group-9" transform="translate(29.896552, 396.719424)">
                        <g id="Group-5" transform="translate(47.482759, 0.000000)">
                            <g id="Group-4">
                                <path d="M17.5862069,35.1079137 C7.87361254,35.1079137 0,27.24874 0,17.5539568 C0,7.8591737 7.87361254,0 17.5862069,0 C27.2988013,0 35.1724138,7.8591737 35.1724138,17.5539568 C35.1724138,27.24874 27.2988013,35.1079137 17.5862069,35.1079137 Z M12.4166516,13.0579718 C9.03541086,11.354068 8.21472134,9.81451314 8.21472134,9.81451314 C8.21472134,9.81451314 7.68948006,10.7319998 7.91927312,12.4359035 C8.1490663,14.1398073 9.76412722,16.3321209 9.76412722,16.3321209 L7.82079038,15.5488046 C7.82079038,15.5488046 7.91927305,16.6301282 8.67430747,17.7442191 C9.42934181,18.85831 12.0883758,20.2673074 12.0883758,20.2673074 L9.56065213,20.3000747 C9.56065213,20.3000747 9.79044519,20.8243528 10.7096174,21.7090721 C11.6287897,22.5937914 14.1893409,23.3802085 14.1893409,23.3802085 C14.1893409,23.3802085 12.3885019,24.6390035 11.136376,25.1168796 C9.88425012,25.5947558 7.91927312,25.7066924 7.91927312,25.7066924 C7.91927312,25.7066924 10.8453838,27.5240388 15.3383062,27.0829224 C19.8312287,26.641806 22.9241201,24.5458956 25.3178906,21.0537245 C27.7116607,17.5615532 27.4845109,13.0257164 27.4845109,13.0257164 C27.4845109,13.0257164 27.7465842,12.7249912 28.3824543,12.1428809 C29.0183245,11.5607707 29.2141503,11.2749752 29.2141503,11.2749752 L27.6253352,11.443081 L28.6571348,9.60475435 C28.6571348,9.60475435 28.027355,9.89049295 27.5922344,10.0505065 C27.1571138,10.2105202 26.5731362,10.3705338 26.5731362,10.3705338 C26.5731362,10.3705338 24.2689468,7.55305193 20.9205336,9.22418831 C17.5721203,10.8953244 18.6554306,14.6635734 18.6554306,14.6635734 C18.6554306,14.6635734 15.7978924,14.7618755 12.4166516,13.0579718 Z" id="twitter_c"></path>
                            </g>
                        </g>
                    </g>
                </g>
            </g>
        </g>
    </g>
</svg>