<?xml version="1.0" encoding="UTF-8"?>
<svg width="36px" height="36px" viewBox="0 0 36 36" version="1.1" xmlns="http://www.w3.org/2000/svg" xmlns:xlink="http://www.w3.org/1999/xlink">
    <!-- Generator: Sketch 43.1 (39012) - http://www.bohemiancoding.com/sketch -->
    <title>Group 6</title>
    <desc>Created with Sketch.</desc>
    <defs></defs>
    <g id="Web-" stroke="none" stroke-width="1" fill="none" fill-rule="evenodd">
        <g id="Landing" transform="translate(-667.000000, -1843.000000)">
            <g id="Group-21" transform="translate(-302.000000, 1294.000000)">
                <g id="Group-18" transform="translate(843.000000, 153.000000)">
                    <g id="Group-9" transform="translate(29.896552, 396.719424)">
                        <g id="Group-6" transform="translate(96.724138, 0.000000)">
                            <g id="Group" transform="translate(7.034483, 7.021583)"></g>
                            <ellipse id="Oval-189" fill="#565656" cx="17.5862069" cy="17.5539568" rx="17.5862069" ry="17.5539568"></ellipse>
                            <g id="Group-2" transform="translate(7.034483, 7.021583)" fill-rule="nonzero" fill="#FFFFFF">
                                <path d="M21.9827586,10.6886531 C21.9827586,16.5919025 17.151681,21.3773062 11.1911782,21.3773062 C9.29895115,21.3773062 7.52127874,20.8945723 5.97466954,20.0473501 L0,21.942446 L1.94791667,16.2076659 C0.965287356,14.5970903 0.399353448,12.7080895 0.399353448,10.6886531 C0.399353448,4.78540368 5.23091954,0 11.1911782,0 C17.1521695,0 21.9827586,4.78540368 21.9827586,10.6886531 Z M11.1911782,1.7022462 C6.1879023,1.7022462 2.11816092,5.73356115 2.11816092,10.6886531 C2.11816092,12.65494 2.76030172,14.4759193 3.84649425,15.9572782 L2.71291667,19.2947242 L6.19962644,18.1885811 C7.63216954,19.127474 9.34829023,19.67506 11.1914224,19.67506 C16.1939655,19.67506 20.2644397,15.6442326 20.2644397,10.6891407 C20.2644397,5.73404876 16.1942098,1.7022462 11.1911782,1.7022462 Z M16.640704,13.1503517 C16.574023,13.0413709 16.3979167,12.9755436 16.1336351,12.8446203 C15.8688649,12.713697 14.5679741,12.0795604 14.3261638,11.992522 C14.0836207,11.9052398 13.9067816,11.8613549 13.7306753,12.1234452 C13.554569,12.3857794 13.0475,12.9755436 12.8928879,13.1503517 C12.7385201,13.3256475 12.5843966,13.3475899 12.3196264,13.2164229 C12.0553448,13.0854996 11.2031466,12.8085372 10.1926724,11.916211 C9.40642241,11.2218545 8.87541667,10.3646363 8.72104885,10.1020584 C8.56692529,9.83996803 8.70492816,9.69831735 8.83706897,9.56788169 C8.95626437,9.45036771 9.10183908,9.26190647 9.23397989,9.10904077 C9.3666092,8.95593125 9.41057471,8.84695044 9.49826149,8.67189848 C9.58692529,8.49709033 9.54271552,8.34422462 9.47627874,8.21281375 C9.41033046,8.08189049 8.88079023,6.79264988 8.66047414,6.26798161 C8.44015805,5.74380096 8.22008621,5.83108313 8.06547414,5.83108313 C7.91135057,5.83108313 7.73475575,5.80914069 7.55840517,5.80914069 C7.3820546,5.80914069 7.09530172,5.87472422 6.85275862,6.13681455 C6.61045977,6.39914868 5.92728448,7.03304157 5.92728448,8.32203837 C5.92728448,9.61127898 6.87474138,10.8568785 7.00737069,11.0314428 C7.13951149,11.2060072 8.83682471,13.9375979 11.5260489,14.9866906 C14.2155172,16.0352958 14.2155172,15.6854357 14.7006034,15.6415508 C15.1852011,15.5979097 16.2652874,15.0079017 16.4865805,14.3964388 C16.706408,13.7840008 16.706408,13.2595763 16.640704,13.1503517 Z" id="WhatsApp"></path>
                            </g>
                        </g>
                    </g>
                </g>
            </g>
        </g>
    </g>
</svg>